# File produced by Open Asset Import Library (http://www.assimp.sf.net)
# (assimp v5.0.1588609223)

mtllib result.mtl

# 76 vertex positions
v  -0.21490458 0.10563365 0.048432458
v  0.20520681 -0.29953668 0.048432432
v  0.20520681 0.10563365 0.048432432
v  -0.21490458 -0.29953668 0.048432458
v  0.20520681 0.10563365 0.02208421
v  -0.21490458 -0.29953668 0.022084236
v  -0.21490458 0.10563365 0.022084236
v  0.20520681 -0.29953668 0.02208421
v  -0.21490458 0.10563365 0.45943248
v  0.038508266 -0.29953668 0.45943248
v  0.038508266 0.10563365 0.45943248
v  -0.21490458 -0.29953668 0.45943248
v  0.038508266 0.10563365 0.43308425
v  -0.21490458 -0.29953668 0.43308425
v  -0.21490458 0.10563365 0.43308425
v  0.038508266 -0.29953668 0.43308425
v  -0.21490456 0.10563365 0.45943248
v  0.20539431 -0.023882881 0.45943245
v  0.20539431 0.10563365 0.45943245
v  -0.21490456 -0.023882881 0.45943248
v  0.20539431 0.10563365 0.43308425
v  -0.21490456 -0.023882881 0.43308428
v  -0.21490456 0.10563365 0.43308428
v  0.20539431 -0.023882881 0.43308425
v  0.012602866 0.29991585 0.46476448
v  -0.27210456 0.011636764 0.044653162
v  0.012602717 0.29991582 0.044653043
v  -0.27210441 0.011636794 0.4647646
v  -0.0061440766 0.31843033 0.044653043
v  -0.29085121 0.030151308 0.4647646
v  -0.0061439276 0.31843036 0.46476448
v  -0.29085135 0.030151278 0.044653162
v  -0.19431898 0.12334201 0.13849589
v  0.16560951 0.12616131 0.13849589
v  -0.013392564 0.30520821 0.13849589
v  -0.013392564 0.30520821 0.038495883
v  0.16560951 0.12616131 0.038495883
v  -0.19431898 0.12334201 0.038495883
v  0.26593822 0.01268734 0.46786898
v  -0.022340789 0.29739457 0.047757566
v  0.26593828 0.012687251 0.047757626
v  -0.022340849 0.29739469 0.46786892
v  0.2844528 0.031434044 0.047757626
v  -0.0038263351 0.31614149 0.46786892
v  0.28445274 0.031434134 0.46786898
v  -0.0038262755 0.31614137 0.047757566
v  -0.18348248 0.10352555 0.46786892
v  0.17644601 0.10634485 0.46786892
v  -0.0025560702 0.28539175 0.46786889
v  -0.0025560712 0.28539172 0.3678689
v  0.17644601 0.10634483 0.36786893
v  -0.18348248 0.10352553 0.36786893
v  -0.18756562 0.10563365 0.4437632
v  -0.18756579 -0.29953668 0.023651913
v  -0.18756579 0.10563365 0.023651913
v  -0.18756562 -0.29953668 0.4437632
v  -0.21391401 0.10563365 0.023651913
v  -0.21391384 -0.29953668 0.4437632
v  -0.21391384 0.10563365 0.4437632
v  -0.21391401 -0.29953668 0.023651913
v  0.20520689 0.10467032 0.4437632
v  0.20520674 -0.30050001 0.023651928
v  0.20520674 0.10467032 0.023651928
v  0.20520689 -0.30050001 0.4437632
v  0.17885853 0.10467032 0.023651928
v  0.17885868 -0.30050001 0.4437632
v  0.17885868 0.10467032 0.4437632
v  0.17885853 -0.30050001 0.023651928
v  0.180675 -0.29953671 0.44376361
v  -0.178316 -0.29953668 0.023652419
v  0.18067488 -0.29953665 0.02365233
v  -0.17831588 -0.29953676 0.44376373
v  0.18067488 -0.27318841 0.02365233
v  -0.17831588 -0.27318853 0.44376373
v  0.180675 -0.2731885 0.44376361
v  -0.178316 -0.27318847 0.023652419

# 0 UV coordinates

# 50 vertex normals
vn 5.9604661e-11 -1.734724e-21 0.001
vn -5.9604661e-11 1.734724e-21 -0.001
vn -0.015944583 -8.2431602e-28 9.5037145e-10
vn 0.015944583 8.2431602e-28 -9.5037145e-10
vn 5.1555405e-29 0.0009972261 1.7299119e-21
vn -5.1555405e-29 -0.0009972261 -1.7299119e-21
vn -0.0096178353 -4.9723067e-28 5.7326777e-10
vn 0.0096178353 4.9723067e-28 -5.7326777e-10
vn -0.015951699 -8.2468388e-28 9.5079555e-10
vn 0.015951699 8.2468388e-28 -9.5079555e-10
vn 1.6480172e-29 0.00031877274 5.5298271e-22
vn -1.6480172e-29 -0.00031877274 -5.5298271e-22
vn 0.00071150088 -0.0007026855 -2.3841865e-10
vn -0.00071150088 0.0007026855 2.3841865e-10
vn 5.7022289e-09 1.4255572e-09 0.015944585
vn -5.7022289e-09 -1.4255572e-09 -0.015944585
vn 0.00070073624 0.00070952723 -2.9719657e-10
vn -0.00070073624 -0.00070952723 2.9719657e-10
vn 1.9271476e-29 -1.0269612e-18 0.17996424
vn -1.9271476e-29 1.0269612e-18 -0.17996424
vn -0.32158521 0.08168035 4.6610671e-19
vn 0.3212643 0.082002141 4.67943e-19
vn 0.0055789724 -0.18184432 -1.0376898e-18
vn -0.00070268544 -0.00071150082 1.192093e-10
vn 0.00070268544 0.00071150082 -1.192093e-10
vn -1.9007422e-09 2.8511133e-09 0.015944581
vn 1.9007422e-09 -2.8511133e-09 -0.015944581
vn 0.00070952723 -0.00070073636 1.7831794e-10
vn -0.00070952723 0.00070073636 -1.7831794e-10
vn 1.6952539e-09 3.2247137e-08 0.17996424
vn -1.6952539e-09 -3.2247137e-08 -0.17996424
vn -0.32158521 0.08168035 -1.1606687e-08
vn 0.3212643 0.082002141 -1.7719957e-08
vn 0.0055789724 -0.18184432 3.2531467e-08
vn 0.00099999981 -4.090482e-21 -3.5762784e-10
vn -0.00099999981 4.090482e-21 3.5762784e-10
vn 5.7022267e-09 9.7482702e-21 0.01594458
vn -5.7022267e-09 -9.7482702e-21 -0.01594458
vn 4.0791358e-21 0.0009972261 -6.0968982e-22
vn -4.0791358e-21 -0.0009972261 6.0968982e-22
vn 0.0009999997 -4.0904812e-21 -3.5762782e-10
vn -0.0009999997 4.0904812e-21 3.5762782e-10
vn 5.7022262e-09 9.7482686e-21 0.015944578
vn -5.7022262e-09 -9.7482686e-21 -0.015944578
vn 5.9604641e-11 -0.00099999993 -1.7881392e-10
vn -5.9604641e-11 0.00099999993 1.7881392e-10
vn 4.7518558e-09 -2.3759279e-09 0.01594458
vn -4.7518558e-09 2.3759279e-09 -0.01594458
vn 0.00088356686 1.0532938e-10 -2.3699109e-10
vn -0.00088356686 -1.0532938e-10 2.3699109e-10

# Mesh 'mesh_id73' with 12 faces
g mesh_id73
usemtl 90
f  1//1 2//1 3//1
f  1//1 4//1 2//1
f  5//2 6//2 7//2
f  5//2 8//2 6//2
f  7//3 4//3 1//3
f  7//3 6//3 4//3
f  3//4 8//4 5//4
f  3//4 2//4 8//4
f  3//5 7//5 1//5
f  3//5 5//5 7//5
f  8//6 4//6 6//6
f  8//6 2//6 4//6

# Mesh 'mesh_id35' with 12 faces
g mesh_id35
usemtl 90
f  9//1 10//1 11//1
f  9//1 12//1 10//1
f  13//2 14//2 15//2
f  13//2 16//2 14//2
f  15//7 12//7 9//7
f  15//7 14//7 12//7
f  11//8 16//8 13//8
f  11//8 10//8 16//8
f  11//5 15//5 9//5
f  11//5 13//5 15//5
f  16//6 12//6 14//6
f  16//6 10//6 12//6

# Mesh 'mesh_id79' with 12 faces
g mesh_id79
usemtl 90
f  17//1 18//1 19//1
f  17//1 20//1 18//1
f  21//2 22//2 23//2
f  21//2 24//2 22//2
f  23//9 20//9 17//9
f  23//9 22//9 20//9
f  19//10 24//10 21//10
f  19//10 18//10 24//10
f  19//11 23//11 17//11
f  19//11 21//11 23//11
f  24//12 20//12 22//12
f  24//12 18//12 20//12

# Mesh 'mesh_id85' with 12 faces
g mesh_id85
usemtl 90
f  25//13 26//13 27//13
f  25//13 28//13 26//13
f  29//14 30//14 31//14
f  29//14 32//14 30//14
f  31//15 28//15 25//15
f  31//15 30//15 28//15
f  27//16 32//16 29//16
f  27//16 26//16 32//16
f  27//17 31//17 25//17
f  27//17 29//17 31//17
f  32//18 28//18 30//18
f  32//18 26//18 28//18

# Mesh 'mesh_id105' with 8 faces
g mesh_id105
usemtl 92
f  33//19 34//19 35//19
f  36//20 37//20 38//20
f  33//21 36//21 38//21
f  33//21 35//21 36//21
f  35//22 37//22 36//22
f  35//22 34//22 37//22
f  34//23 38//23 37//23
f  34//23 33//23 38//23

# Mesh 'mesh_id97' with 12 faces
g mesh_id97
usemtl 90
f  39//24 40//24 41//24
f  39//24 42//24 40//24
f  43//25 44//25 45//25
f  43//25 46//25 44//25
f  45//26 42//26 39//26
f  45//26 44//26 42//26
f  41//27 46//27 43//27
f  41//27 40//27 46//27
f  41//28 45//28 39//28
f  41//28 43//28 45//28
f  46//29 42//29 44//29
f  46//29 40//29 42//29

# Mesh 'mesh_id98' with 8 faces
g mesh_id98
usemtl 92
f  47//30 48//30 49//30
f  50//31 51//31 52//31
f  47//32 50//32 52//32
f  47//32 49//32 50//32
f  49//33 51//33 50//33
f  49//33 48//33 51//33
f  48//34 52//34 51//34
f  48//34 47//34 52//34

# Mesh 'mesh_id29' with 12 faces
g mesh_id29
usemtl 90
f  53//35 54//35 55//35
f  53//35 56//35 54//35
f  57//36 58//36 59//36
f  57//36 60//36 58//36
f  59//37 56//37 53//37
f  59//37 58//37 56//37
f  55//38 60//38 57//38
f  55//38 54//38 60//38
f  55//39 59//39 53//39
f  55//39 57//39 59//39
f  60//40 56//40 58//40
f  60//40 54//40 56//40

# Mesh 'mesh_id67' with 12 faces
g mesh_id67
usemtl 90
f  61//41 62//41 63//41
f  61//41 64//41 62//41
f  65//42 66//42 67//42
f  65//42 68//42 66//42
f  67//43 64//43 61//43
f  67//43 66//43 64//43
f  63//44 68//44 65//44
f  63//44 62//44 68//44
f  63//39 67//39 61//39
f  63//39 65//39 67//39
f  68//40 64//40 66//40
f  68//40 62//40 64//40

# Mesh 'mesh_id143' with 12 faces
g mesh_id143
usemtl 90
f  69//45 70//45 71//45
f  69//45 72//45 70//45
f  73//46 74//46 75//46
f  73//46 76//46 74//46
f  75//47 72//47 69//47
f  75//47 74//47 72//47
f  71//48 76//48 73//48
f  71//48 70//48 76//48
f  71//49 75//49 69//49
f  71//49 73//49 75//49
f  76//50 72//50 74//50
f  76//50 70//50 72//50

